<svg width="234" height="240" viewBox="0 0 234 240" fill="none" xmlns="http://www.w3.org/2000/svg">
<g id="Design">
<g id="Vector">
<path d="M0 24C0 10.7452 10.7452 0 24 0H210C223.255 0 234 10.7452 234 24V186C234 199.255 223.255 210 210 210H24C10.7452 210 0 199.255 0 186V24Z" fill="#1A1A1A"/>
<path d="M7 43H227V183C227 194.046 218.046 203 207 203H27C15.9543 203 7 194.046 7 183V43Z" fill="white"/>
</g>
<rect id="Rectangle 86" x="78" y="203" width="112" height="37" fill="white"/>
<path id="Union" fill-rule="evenodd" clip-rule="evenodd" d="M178 22C178 24.7614 175.761 27 173 27C170.239 27 168 24.7614 168 22C168 19.2386 170.239 17 173 17C175.761 17 178 19.2386 178 22ZM196 22C196 24.7614 193.761 27 191 27C188.239 27 186 24.7614 186 22C186 19.2386 188.239 17 191 17C193.761 17 196 19.2386 196 22ZM209 27C211.761 27 214 24.7614 214 22C214 19.2386 211.761 17 209 17C206.239 17 204 19.2386 204 22C204 24.7614 206.239 27 209 27Z" fill="white"/>
<path id="Vector_2" d="M33 69H90M33 93H73M33 117H53" stroke="#1A1A1A" stroke-width="12" stroke-linecap="round"/>
<circle id="Ellipse 10" cx="145" cy="105" r="42" fill="#1A1A1A"/>
<g id="Group 2">
<g id="Vector 10">
<path d="M168.866 198.724L147.813 176.672C147.082 175.906 147.081 174.708 147.804 173.933L162.44 158.254L217.751 127.085C219.582 126.053 221.561 128.182 220.399 129.933L185.758 182.136L171.837 198.632C171.07 199.541 169.688 199.584 168.866 198.724Z" fill="white"/>
<path d="M162.44 158.254L147.804 173.933C147.081 174.708 147.082 175.906 147.813 176.672C151.338 180.364 161.329 190.829 168.866 198.724C169.688 199.584 171.07 199.541 171.837 198.632C177.781 191.589 185.758 182.136 185.758 182.136M162.44 158.254L185.758 182.136M162.44 158.254L217.751 127.085C219.582 126.053 221.561 128.182 220.399 129.933L185.758 182.136" stroke="#1A1A1A" stroke-width="8"/>
</g>
<path id="Vector 11" d="M112.215 212.119C114.573 186.36 132.588 180.069 142.086 180.081C142.605 180.081 143.084 180.299 143.442 180.673L165.802 204.094C166.387 204.707 166.515 205.641 166.118 206.391C147.067 242.381 113.282 240.979 93.0725 224.353C91.7827 223.292 92.4364 221.269 94.0813 220.979C107.018 218.697 110.761 214.995 112 212.844C112.126 212.625 112.192 212.371 112.215 212.119Z" fill="#1A1A1A" stroke="#1A1A1A" stroke-width="8"/>
</g>
</g>
</svg>
