<svg width="156" height="164" viewBox="0 0 156 164" fill="none" xmlns="http://www.w3.org/2000/svg">
<g id="Develop">
<g id="Vector">
<path d="M0 16C0 7.16344 7.16344 0 16 0H140C148.837 0 156 7.16344 156 16V124C156 132.837 148.837 140 140 140H16C7.16344 140 0 132.837 0 124V16Z" fill="#1A1A1A"/>
<path d="M4.66667 28.6667H151.333V122C151.333 129.364 145.364 135.333 138 135.333H18C10.6362 135.333 4.66667 129.364 4.66667 122V28.6667Z" fill="white"/>
</g>
<path id="Union" fill-rule="evenodd" clip-rule="evenodd" d="M118.667 14.6667C118.667 16.5077 117.174 18 115.333 18C113.492 18 112 16.5077 112 14.6667C112 12.8258 113.492 11.3334 115.333 11.3334C117.174 11.3334 118.667 12.8258 118.667 14.6667ZM130.667 14.6667C130.667 16.5077 129.174 18.0001 127.333 18.0001C125.492 18.0001 124 16.5077 124 14.6667C124 12.8258 125.492 11.3334 127.333 11.3334C129.174 11.3334 130.667 12.8258 130.667 14.6667ZM139.333 18.0001C141.174 18.0001 142.667 16.5077 142.667 14.6667C142.667 12.8258 141.174 11.3334 139.333 11.3334C137.492 11.3334 136 12.8258 136 14.6667C136 16.5077 137.492 18.0001 139.333 18.0001Z" fill="white"/>
<rect id="Rectangle 84" x="18" y="44.6666" width="120" height="52" rx="5.33333" fill="white" stroke="#1A1A1A" stroke-width="5.33333" stroke-linejoin="round"/>
<g id="Vector_2">
<path d="M39.3335 64.6667C39.3335 61.7212 41.7213 59.3334 44.6668 59.3334H113.333C116.279 59.3334 118.667 61.7212 118.667 64.6667V121.333C118.667 124.279 116.279 126.667 113.333 126.667H44.6668C41.7213 126.667 39.3335 124.279 39.3335 121.333V64.6667Z" fill="#1A1A1A"/>
<path d="M85.1934 76.8397C86.571 77.3605 87.2655 78.8995 86.7447 80.2771L76.4114 107.61C75.8906 108.988 74.3516 109.683 72.974 109.162C71.5964 108.641 70.9019 107.102 71.4227 105.724L81.756 78.3911C82.2768 77.0135 83.8158 76.3189 85.1934 76.8397Z" fill="white"/>
<path d="M90.1681 83.0016C91.0881 81.8515 92.7662 81.6651 93.9162 82.5851L102.666 89.5849C104.617 91.1461 104.675 94.0945 102.787 95.7312L93.9968 103.349C92.8839 104.314 91.1997 104.194 90.2352 103.081C89.2706 101.968 89.3909 100.283 90.5039 99.3189L98.0841 92.7494L90.5845 86.7497C89.4345 85.8297 89.248 84.1516 90.1681 83.0016Z" fill="white"/>
<path d="M64.2512 82.5851C65.4012 81.6651 67.0793 81.8515 67.9994 83.0016C68.9194 84.1516 68.7329 85.8297 67.5829 86.7497L60.0833 92.7494L67.6635 99.3189C68.7765 100.283 68.8968 101.968 67.9322 103.081C66.9677 104.194 65.2835 104.314 64.1706 103.349L55.3804 95.7312C53.4919 94.0945 53.55 91.1461 55.5014 89.5849L64.2512 82.5851Z" fill="white"/>
</g>
<path id="Vector 15" d="M79.8325 121.314L90.8094 156.923C92.0768 161.034 97.2833 162.289 100.285 159.206L107.238 152.065L111.586 156.934C113.725 159.33 117.426 159.471 119.741 157.245L124.381 152.783C126.726 150.528 126.696 146.767 124.315 144.55L118.957 139.562L126.179 132.15C129.261 128.988 127.702 123.672 123.401 122.675L86.5277 114.125C82.2702 113.138 78.545 117.138 79.8325 121.314ZM118.708 139.33C118.708 139.33 118.708 139.33 118.709 139.331L118.708 139.33ZM118.72 139.806C118.72 139.806 118.719 139.806 118.719 139.806L118.72 139.806Z" fill="#1A1A1A" stroke="white" stroke-width="6"/>
</g>
</svg>
