<svg width="234" height="240" viewBox="0 0 234 240" fill="none" xmlns="http://www.w3.org/2000/svg">
<g id="Research">
<g id="Vector">
<path d="M0 24C0 10.7452 10.7452 0 24 0H210C223.255 0 234 10.7452 234 24V186C234 199.255 223.255 210 210 210H24C10.7452 210 0 199.255 0 186V24Z" fill="#1A1A1A"/>
<path d="M7 43H227V183C227 194.046 218.046 203 207 203H27C15.9543 203 7 194.046 7 183V43Z" fill="white"/>
</g>
<rect id="Rectangle 86" x="154" y="189" width="80" height="51" fill="white"/>
<path id="Union" fill-rule="evenodd" clip-rule="evenodd" d="M178 22C178 24.7614 175.761 27 173 27C170.239 27 168 24.7614 168 22C168 19.2386 170.239 17 173 17C175.761 17 178 19.2386 178 22ZM196 22C196 24.7614 193.761 27 191 27C188.239 27 186 24.7614 186 22C186 19.2386 188.239 17 191 17C193.761 17 196 19.2386 196 22ZM209 27C211.761 27 214 24.7614 214 22C214 19.2386 211.761 17 209 17C206.239 17 204 19.2386 204 22C204 24.7614 206.239 27 209 27Z" fill="white"/>
<g id="Group 1">
<path id="Subtract" fill-rule="evenodd" clip-rule="evenodd" d="M31 63C28.7909 63 27 64.7909 27 67V91C27 93.2091 28.7909 95 31 95H55C57.2091 95 59 93.2091 59 91V67C59 64.7909 57.2091 63 55 63H31ZM51.4201 76.4083C52.1979 75.624 52.1926 74.3577 51.4083 73.5799C50.624 72.8021 49.3577 72.8074 48.5799 73.5917L41.9703 80.2568L38.8178 77.4955C37.9869 76.7677 36.7233 76.8513 35.9955 77.6822C35.2677 78.5131 35.3513 79.7767 36.1822 80.5045L40.0418 83.8851C41.234 84.9294 43.0327 84.8662 44.1487 83.7408L51.4201 76.4083Z" fill="#1A1A1A"/>
<path id="Subtract_2" fill-rule="evenodd" clip-rule="evenodd" d="M31 107C28.7909 107 27 108.791 27 111V135C27 137.209 28.7909 139 31 139H55C57.2091 139 59 137.209 59 135V111C59 108.791 57.2091 107 55 107H31ZM51.4201 120.408C52.1979 119.624 52.1926 118.358 51.4083 117.58C50.624 116.802 49.3577 116.807 48.5799 117.592L41.9703 124.257L38.8178 121.496C37.9869 120.768 36.7233 120.851 35.9955 121.682C35.2677 122.513 35.3513 123.777 36.1822 124.504L40.0418 127.885C41.234 128.929 43.0327 128.866 44.1487 127.741L51.4201 120.408Z" fill="#1A1A1A"/>
<path id="Subtract_3" fill-rule="evenodd" clip-rule="evenodd" d="M31 151C28.7909 151 27 152.791 27 155V179C27 181.209 28.7909 183 31 183H55C57.2091 183 59 181.209 59 179V155C59 152.791 57.2091 151 55 151H31ZM51.4201 164.408C52.1979 163.624 52.1926 162.358 51.4083 161.58C50.624 160.802 49.3577 160.807 48.5799 161.592L41.9703 168.257L38.8178 165.496C37.9869 164.768 36.7233 164.851 35.9955 165.682C35.2677 166.513 35.3513 167.777 36.1822 168.504L40.0418 171.885C41.234 172.929 43.0327 172.866 44.1487 171.741L51.4201 164.408Z" fill="#1A1A1A"/>
</g>
<path id="Union_2" fill-rule="evenodd" clip-rule="evenodd" d="M143 182.344C150.077 182.344 156.868 181.115 163.173 178.858C162.624 180.999 162.779 183.331 163.763 185.488L185.948 234.132C188.92 240.649 197.577 242.024 202.416 236.747L217.654 220.132C221.415 216.031 221.102 209.645 216.958 205.927L180.612 173.326C179.676 172.486 178.613 171.849 177.483 171.42C192.916 160.532 203 142.533 203 122.172C203 88.9399 176.137 62 143 62C109.863 62 83 88.9399 83 122.172C83 155.404 109.863 182.344 143 182.344ZM143 176.327C172.823 176.327 197 152.081 197 122.172C197 92.2631 172.823 68.0172 143 68.0172C113.177 68.0172 89 92.2631 89 122.172C89 152.081 113.177 176.327 143 176.327ZM183 122.172C183 144.327 165.091 162.286 143 162.286C120.909 162.286 103 144.327 103 122.172C103 100.017 120.909 82.0573 143 82.0573C165.091 82.0573 183 100.017 183 122.172ZM150.992 120.162C154.047 117.68 156 113.887 156 109.636C156 102.159 149.956 96.0976 142.5 96.0976C135.044 96.0976 129 102.159 129 109.636C129 114.086 131.14 118.034 134.445 120.502C132.981 121.438 131.615 122.188 130.373 122.87L130.373 122.87C125.867 125.345 123 126.92 123 133.204C123 144.281 131.954 148.247 143 148.247C154.046 148.247 163 144.281 163 133.204C163 126.933 160.115 125.351 155.616 122.885C154.218 122.119 152.664 121.267 150.992 120.162Z" fill="#1A1A1A"/>
</g>
</svg>
